<?xml version="1.0" encoding="UTF-8"?>
<svg version="1.1" viewBox="0 0 300 300" xmlns="http://www.w3.org/2000/svg">
<g transform="scale(1 -1)">
<path d="m175-81.25c0 3.516-2.734 6.25-6.25 6.25h-12.5c-3.516 0-6.25-2.734-6.25-6.25v-68.75h-43.75c-3.516 0-6.25-2.734-6.25-6.25v-12.5c0-3.516 2.734-6.25 6.25-6.25h62.5c3.516 0 6.25 2.734 6.25 6.25v87.5zm81.25-68.75c0-58.594-47.656-106.25-106.25-106.25s-106.25 47.656-106.25 106.25 47.656 106.25 106.25 106.25 106.25-47.656 106.25-106.25zm43.75 0c0 82.813-67.187 150-150 150-82.812 0-150-67.187-150-150 0-82.812 67.188-150 150-150 82.813 0 150 67.188 150 150z" fill="#fd5"/>
</g>
</svg>
