<?xml version="1.0" encoding="UTF-8"?>
<svg version="1.1" viewBox="0 0 1000 1000" xmlns="http://www.w3.org/2000/svg">
  <g transform="scale(1 -1) translate(0,-850)">
    <path
      d="M500 650c-166 0-300-134-300-300s134-300 300-300 300 134 300 300-134 300-300 300z m-200-300c0 93 64 171 150 194v-388c-86 23-150 101-150 194z m250-194v388c86-23 150-101 150-194 0-93-64-171-150-194z m-50 584c215 0 390-175 390-390s-175-390-390-390c-215 0-390 175-390 390s175 390 390 390m0 80c-63 0-125-12-183-37-56-24-106-58-149-101-44-43-77-93-101-149-25-58-37-120-37-183s12-125 37-183c24-56 58-106 101-149 43-44 93-77 149-101 58-25 120-37 183-37s125 12 183 37c56 24 106 58 149 101 44 43 77 93 101 149 25 58 37 120 37 183s-12 125-37 183c-24 56-58 106-101 149-43 44-93 77-149 101-58 25-120 37-183 37l0 0z"
      fill="white" />
  </g>
</svg>