<?xml version="1.0" encoding="UTF-8"?>
<svg version="1.1" viewBox="0 0 1000 1000" xmlns="http://www.w3.org/2000/svg">
  <g transform="scale(1 -1) translate(0,-850)">
    <path
      d="M500 740c215 0 390-175 390-390s-175-390-390-390c-215 0-390 175-390 390s175 390 390 390m0 80c-63 0-125-12-183-37-56-24-106-58-149-101-44-43-77-93-101-149-25-58-37-120-37-183s12-125 37-183c24-56 58-106 101-149 43-44 93-77 149-101 58-25 120-37 183-37s125 12 183 37c56 24 106 58 149 101 44 43 77 93 101 149 25 58 37 120 37 183s-12 125-37 183c-24 56-58 106-101 149-43 44-93 77-149 101-58 25-120 37-183 37l0 0z m192-470c0 41-33 75-75 75-41 0-75-34-75-75s34-75 75-75c42 0 75 34 75 75z m-174 152c0 42-34 75-75 75s-75-33-75-75 33-75 75-75 75 34 75 75z m0-304c0 41-34 75-75 75s-75-34-75-75 33-75 75-75 75 33 75 75z"
      fill="white" />
  </g>
</svg>