<?xml version="1.0" encoding="UTF-8"?>
<svg version="1.1" viewBox="0 0 300 300" xmlns="http://www.w3.org/2000/svg">
<g transform="scale(1 -1)">
<path d="m256.25-150c0-58.594-47.656-106.25-106.25-106.25s-106.25 47.656-106.25 106.25 47.656 106.25 106.25 106.25 106.25-47.656 106.25-106.25zm43.75 0c0 82.813-67.187 150-150 150-82.812 0-150-67.187-150-150 0-82.812 67.188-150 150-150 82.813 0 150 67.188 150 150z" fill="#fd5"/>
<path d="m144.02-156.58c-13.911-1.211-23.305-9.657-29.227-21.491-6.749-13.487-7.421-29.052 1.312-43.255 4.075-7.332 8.734-11.547 15.455-14.67 3.388-1.573 6.748-2.561 11.001-3.237 2.148-0.342 4.235-0.551 6.62-0.666 0.909-0.044 2.279-0.056 3.629-0.054 32.086 0.983 59.945 18.76 75.083 44.837l-0.06-0.036c-17.555-9.603-39.566-9.689-55.573-1.679-14.34 7.175-25.715 22.08-28.24 40.251zm-39.173-71.246c-9.603 17.555-9.689 39.566-1.679 55.573 7.175 14.34 22.08 25.715 40.251 28.24-1.211 13.911-9.657 23.305-21.491 29.227-13.487 6.749-29.052 7.421-43.255-1.312-7.332-4.075-11.547-8.734-14.67-15.455-1.574-3.388-2.561-6.748-3.237-11.001-0.342-2.148-0.551-4.235-0.666-6.62-0.044-0.909-0.056-2.279-0.054-3.629 0.983-32.086 18.76-59.945 44.837-75.083-0.012 0.02-0.024 0.04-0.036 0.06zm-32.674 122.99c17.555 9.603 39.566 9.689 55.573 1.679 14.34-7.175 25.715-22.08 28.24-40.251 13.911 1.211 23.305 9.657 29.227 21.491 6.749 13.487 7.421 29.052-1.312 43.255-4.075 7.332-8.734 11.547-15.455 14.67-3.388 1.573-6.748 2.561-11.001 3.237-2.148 0.342-4.235 0.551-6.62 0.666-0.909 0.044-2.279 0.056-3.629 0.054-32.086-0.983-59.945-18.76-75.083-44.837l0.06 0.036zm122.99 32.674c9.603-17.555 9.689-39.566 1.679-55.573-7.175-14.34-22.08-25.715-40.251-28.24 1.211-13.911 9.657-23.305 21.491-29.227 13.487-6.749 29.052-7.421 43.255 1.312 7.332 4.075 11.547 8.734 14.67 15.455 1.573 3.388 2.561 6.748 3.237 11.001 0.342 2.148 0.551 4.235 0.666 6.62 0.044 0.909 0.056 2.279 0.054 3.629-0.983 32.086-18.76 59.945-44.837 75.083 0.012-0.02 0.024-0.04 0.036-0.06z" fill="#fd5"/>
</g>
</svg>
