<?xml version="1.0" standalone="no"?>
<!DOCTYPE svg PUBLIC "-//W3C//DTD SVG 20010904//EN"
 "http://www.w3.org/TR/2001/REC-SVG-20010904/DTD/svg10.dtd">
<svg version="1.0" xmlns="http://www.w3.org/2000/svg"
 width="700.000000pt" height="700.000000pt" viewBox="0 0 700.000000 700.000000"
 preserveAspectRatio="xMidYMid meet">
<metadata>
Created by potrace 1.14, written by Peter Selinger 2001-2017
</metadata>
<g transform="translate(0.000000,700.000000) scale(0.100000,-0.100000)"
fill="#000000" stroke="none">
<path d="M3278 6996 c-1 -2 -39 -6 -83 -10 -158 -12 -350 -43 -525 -86 -1011
-246 -1867 -939 -2321 -1877 -32 -68 -59 -125 -59 -127 0 -3 -11 -29 -24 -58
-60 -133 -155 -432 -181 -569 -3 -13 -11 -58 -20 -99 -22 -115 -30 -160 -41
-255 -26 -230 -26 -667 1 -826 2 -13 6 -46 9 -74 9 -78 23 -156 51 -285 30
-141 110 -396 173 -550 205 -507 555 -989 978 -1347 107 -90 113 -94 197 -157
453 -334 1023 -566 1576 -642 25 -3 57 -8 71 -10 163 -25 682 -25 842 1 13 2
46 7 73 10 71 10 87 13 115 18 14 3 43 8 65 12 115 21 311 73 455 122 559 189
1095 545 1479 982 31 35 63 71 71 80 29 31 147 187 202 266 124 178 268 444
353 650 68 164 151 426 181 570 16 79 54 301 59 350 4 33 9 71 11 85 9 46 11
524 4 605 -15 153 -21 210 -25 225 -2 8 -7 35 -10 60 -15 117 -78 375 -125
520 -206 624 -585 1187 -1075 1595 -32 28 -70 59 -83 70 -109 93 -379 267
-563 363 -304 160 -746 306 -1049 347 -19 3 -46 7 -60 10 -13 2 -52 7 -86 11
-33 3 -74 8 -90 10 -32 5 -540 14 -546 10z m497 -1031 c468 -60 859 -218 1223
-492 116 -88 325 -286 402 -383 25 -30 47 -57 51 -60 7 -6 63 -85 131 -187
128 -190 279 -537 323 -739 60 -281 70 -366 70 -609 0 -207 -8 -285 -45 -480
-42 -216 -103 -393 -210 -610 -64 -129 -211 -372 -239 -395 -3 -3 -33 -39 -65
-80 -79 -100 -271 -290 -376 -371 -88 -68 -217 -159 -225 -159 -2 0 -20 -11
-40 -25 -60 -40 -268 -143 -368 -182 -311 -120 -564 -167 -897 -168 -207 0
-277 6 -485 41 -83 14 -334 85 -400 114 -11 5 -40 17 -65 27 -58 23 -262 125
-320 159 -59 35 -214 139 -242 163 -13 11 -57 47 -98 81 -191 157 -364 360
-522 610 -32 50 -171 321 -169 328 1 1 -6 19 -14 39 -74 176 -142 455 -162
663 -14 149 -8 493 11 600 3 14 10 52 15 85 16 85 17 93 36 165 48 189 99 325
187 502 272 546 737 974 1303 1201 102 41 279 98 350 112 120 25 253 46 325
51 47 4 87 8 89 10 6 6 371 -4 426 -11z"/>
<path d="M3581 5232 c-19 -9 -44 -30 -55 -45 -21 -28 -21 -37 -24 -858 l-2
-829 -526 0 c-590 0 -574 2 -618 -71 -22 -38 -23 -48 -22 -222 1 -205 9 -232
76 -271 34 -20 52 -20 800 -20 742 1 766 1 800 20 18 11 43 38 55 60 20 39 20
49 19 1086 0 1177 5 1103 -74 1147 -35 19 -53 21 -216 21 -151 0 -184 -3 -213
-18z"/>
</g>
</svg>
